#!OML:ASF F:\VICON\USERDATA\INSTALL\Justin_Nancy\Justin_Nancy.ASF
:FULLY-SPECIFIED
:DEGREES
362
root -3.07174 17.2503 12.0927 -78.1651 -84.2051 81.7019
lowerback 7.23316 -0.347254 -5.82648
upperback 0.342587 -0.945439 0.306105
thorax -3.60721 -0.378041 3.69135
lowerneck -17.1347 -4.28406 -7.5119
upperneck 23.7657 -5.22958 3.97237
head 10.8009 -2.69487 1.91452
rclavicle -1.28216e-014 -8.74653e-015
rhumerus -34.7695 -19.3012 -78.6243
rradius 30.3046
rwrist 8.49629
rhand -12.9949 12.0342
rfingers 7.12502
rthumb 13.0981 -17.5345
lclavicle -1.28216e-014 -8.74653e-015
lhumerus -23.9376 7.05842 87.4988
lradius 31.5281
lwrist -8.69896
lhand -14.0387 22.8
lfingers 7.12502
lthumb 12.0917 52.4306
rfemur -26.538 -0.543466 19.8668
rtibia 14.8933
rfoot -4.18629 -5.05447
rtoes 12.1282
lfemur 9.04142 0.127936 -28.2623
ltibia 18.0576
lfoot -11.8569 -13.8332
ltoes 7.47953
363
root -3.22014 17.2994 12.0579 -41.1119 -86.274 45.2492
lowerback 6.84227 -1.02009 -2.84959
upperback 0.0256497 -1.54376 1.32391
thorax -3.70002 -0.707985 3.1258
lowerneck -17.2477 -4.31607 -7.78845
upperneck 23.9896 -5.2333 4.0946
head 10.9186 -2.70919 2.00293
rclavicle 2.71341e-014 -1.19271e-014
rhumerus -35.144 -20.1611 -78.0986
rradius 29.9451
rwrist 9.67234
rhand -12.9867 12.4959
rfingers 7.12502
rthumb 13.106 -17.0723
lclavicle 2.71341e-014 -1.19271e-014
lhumerus -24.238 5.10102 87.5255
lradius 31.9531
lwrist -6.06533
lhand -16.9582 25.1133
lfingers 7.12502
lthumb 9.27566 54.8892
rfemur -26.5815 -0.24491 23.0933
rtibia 14.8507
rfoot -3.72344 -4.94759
rtoes 20.0577
lfemur 8.22175 -0.324887 -24.0983
ltibia 18.65
lfoot -10.3757 -15.5619
ltoes 7.30551
364
root -3.40639 17.3042 12.0806 -68.7178 -84.1969 72.4347
lowerback 6.97005 -0.635467 -5.66661
upperback 0.119028 -1.29326 0.511973
thorax -3.6538 -0.543425 3.84712
lowerneck -17.2293 -4.30567 -8.01303
upperneck 24.1293 -5.21888 4.28729
head 10.9786 -2.70354 2.11327
rclavicle -9.93923e-016 -3.97569e-015
rhumerus -35.58 -20.7241 -77.6646
rradius 29.7093
rwrist 9.91476
rhand -12.7341 12.7689
rfingers 7.12502
rthumb 13.3495 -16.7835
lclavicle -9.93923e-016 -3.97569e-015
lhumerus -24.5779 4.13239 87.789
lradius 32.2838
lwrist -3.82681
lhand -18.9811 26.2322
lfingers 7.12502
lthumb 7.32338 56.0854
rfemur -26.7142 -0.756234 20.3126
rtibia 16.7711
rfoot -2.67481 -2.95775
rtoes 22.8655
lfemur 10.0062 -0.895577 -27.8147
ltibia 17.4363
lfoot -8.66793 -14.3726
ltoes 6.64211
365
root -3.585 17.3407 12.0684 -65.7829 -84.3243 69.2683
lowerback 7.10324 -0.56923 -5.54237
upperback 0.0754638 -1.19687 0.679205
thorax -3.78324 -0.490945 3.94601
lowerneck -17.3107 -4.2812 -8.12569
upperneck 24.4713 -5.15923 4.25478
head 11.1209 -2.69654 2.12934
rclavicle 2.0276e-014 -1.27222e-014
rhumerus -36.002 -21.2404 -77.0467
rradius 29.3667
rwrist 9.75043
rhand -12.4505 13.0547
rfingers 7.12502
rthumb 13.6229 -16.4796
lclavicle 2.0276e-014 -1.27222e-014
lhumerus -24.802 3.90155 88.1047
lradius 32.1813
lwrist -2.81157
lhand -19.4991 25.7489
lfingers 7.12502
lthumb 6.82332 55.6189
rfemur -25.8276 -0.593733 20.6076
rtibia 16.3958
rfoot -1.16294 -4.32076
rtoes 22.3071
lfemur 10.1381 -1.60021 -27.6218
ltibia 18.5833
lfoot -7.76246 -14.2565
ltoes 4.61076
366
root -3.75437 17.38 12.0586 -63.3975 -84.5033 66.6715
lowerback 7.35214 -0.565187 -5.455
upperback -0.0280166 -1.19233 0.879874
thorax -4.02918 -0.478048 4.11317
lowerneck -17.2391 -4.20416 -7.80217
upperneck 24.7044 -5.03192 3.75168
head 11.1616 -2.6777 1.91208
rclavicle -1.49089e-015 -1.03368e-014
rhumerus -36.4405 -21.3351 -76.569
rradius 29.0269
rwrist 9.95262
rhand -12.6488 12.9348
rfingers 7.12502
rthumb 13.4317 -16.6121
lclavicle -1.49089e-015 -1.03368e-014
lhumerus -25.0914 4.69844 87.6926
lradius 31.8473
lwrist -4.99594
lhand -16.6968 24.609
lfingers 7.12502
lthumb 9.52788 54.3736
rfemur -25.2376 0.476654 20.5696
rtibia 16.7185
rfoot -0.530928 -6.94389
rtoes 24.9763
lfemur 10.2737 -1.93672 -27.3096
ltibia 19.4466
lfoot -6.47125 -14.3605
ltoes 1.80005
